<svg version="1.1" id="Layer_1" xmlns="http://www.w3.org/2000/svg" xmlns:xlink="http://www.w3.org/1999/xlink" x="0px" y="0px"
	 width="100%" viewBox="170 80 700 820" enable-background="new 0 0 1024 1024" xml:space="preserve">
<path fill="#000000" opacity="1.000000" stroke="none" 
	d="
M331.792480,186.957275 
	C370.578033,220.465439 402.038147,258.849396 419.138489,308.816223 
	C421.686066,304.658325 423.624054,301.495300 425.366150,298.652008 
	C428.414581,298.527863 428.621765,301.538788 431.498138,302.112030 
	C458.407532,255.787643 486.378723,209.790054 515.230591,162.305603 
	C532.383850,192.537476 548.819092,221.503769 565.334412,250.611252 
	C569.128418,248.915817 569.523193,244.792084 573.303650,242.886871 
	C585.262634,264.546021 597.208069,286.180542 609.813293,309.010101 
	C627.869202,257.814850 659.712585,218.313889 701.429932,185.072449 
	C704.947998,194.728928 707.077698,203.595947 709.156982,212.452881 
	C715.511841,239.522858 721.074280,266.742798 722.918945,294.565552 
	C726.243164,344.703339 720.338074,393.044159 694.346863,437.288605 
	C691.992004,441.297302 693.360596,443.022156 696.485657,445.228027 
	C720.231384,461.989197 741.098450,481.760986 757.786377,505.632782 
	C784.348938,543.630127 798.943665,585.526245 795.963257,632.287415 
	C793.941711,664.003723 784.273193,693.696594 767.652771,720.901917 
	C732.059570,779.162659 679.859009,815.918701 616.013855,837.462158 
	C581.444885,849.126831 545.801392,854.923523 509.430237,853.929443 
	C439.010101,852.004761 374.721405,831.397644 319.138214,787.124756 
	C282.612610,758.031555 255.611801,721.807861 241.024551,677.006165 
	C234.793106,657.867493 231.729721,638.175720 231.914536,618.034058 
	C232.000488,608.667542 232.145767,608.645569 240.947037,606.060852 
	C261.144562,600.129089 281.578156,595.665100 302.789337,595.679199 
	C343.554138,595.706238 378.019501,610.717285 406.941345,639.120544 
	C419.227448,651.186279 429.671173,664.805908 440.396362,678.206848 
	C468.811523,713.711243 502.765869,742.055603 545.897217,758.032349 
	C573.808289,768.371277 602.706116,771.756897 632.395325,768.987671 
	C664.089294,766.031372 693.016174,755.963745 719.169128,737.577759 
	C744.359924,719.868164 759.598633,695.652588 767.722717,666.447632 
	C784.475830,606.222839 768.870239,553.375305 730.906250,505.701721 
	C726.971252,500.760376 722.581360,496.156738 718.158875,491.634735 
	C713.512878,486.884186 708.573730,482.420380 703.371460,478.080963 
	C718.677734,507.387756 734.653381,536.305054 749.294495,566.143250 
	C745.971130,567.934509 743.276855,567.194397 740.761475,566.919678 
	C685.728149,560.907654 638.495239,578.627563 596.805054,613.746033 
	C580.052002,627.858276 564.886658,643.488342 550.483032,659.926147 
	C546.202026,664.811707 541.805725,669.614502 536.536377,673.498291 
	C521.923828,684.268494 506.195587,684.137268 491.861206,673.005676 
	C484.585754,667.355774 478.552185,660.411133 472.447693,653.585205 
	C450.692108,629.258667 427.327637,606.839844 399.005463,590.096375 
	C367.696625,571.587219 334.091980,562.953064 297.671173,565.936035 
	C292.368164,566.370239 287.034363,566.438232 281.712952,566.620789 
	C281.291779,566.635254 280.855835,566.218567 279.496704,565.533203 
	C295.169495,536.526123 310.789368,507.617004 327.136963,477.360992 
	C324.769958,479.132782 323.473297,479.983429 322.312073,480.990234 
	C296.131226,503.688568 276.298309,530.867371 264.553619,563.618896 
	C263.116028,567.627686 261.049622,569.598877 256.944611,570.161072 
	C252.831024,570.724365 248.784607,571.779358 244.709869,572.624207 
	C242.955002,572.988037 241.197006,573.855286 238.923630,572.208252 
	C246.259247,545.205261 258.985474,520.788147 276.146576,498.578064 
	C293.317047,476.355957 314.199554,458.106384 336.988953,442.252563 
	C337.303345,439.473999 335.651520,437.852081 334.585388,436.047119 
	C317.732147,407.514221 309.436859,376.427979 306.642761,343.624268 
	C302.844299,299.029327 310.523926,255.726929 321.087921,212.740295 
	C323.033386,204.823990 325.401337,197.011597 327.567841,189.149460 
	C328.127869,187.117249 328.581329,184.944351 331.792480,186.957275 
M449.261810,496.118927 
	C453.017609,498.608032 456.652802,501.246368 459.895203,504.400604 
	C476.233185,520.294495 481.241211,540.855469 483.210052,562.414124 
	C485.010468,582.128235 486.007996,601.915588 487.360260,621.670593 
	C487.474213,623.335449 487.601257,624.997498 489.626373,626.683167 
	C505.893982,618.579773 522.848389,618.991699 540.280762,626.603394 
	C540.839050,620.243347 541.257935,614.970459 541.771545,609.706909 
	C543.805847,588.856995 543.923584,567.816650 547.743958,547.147461 
	C550.868225,530.244202 557.118103,514.799988 570.247864,503.019318 
	C582.756897,491.795624 598.047729,487.000916 614.318604,484.714783 
	C620.319031,483.871704 626.333435,482.999664 633.085938,484.268982 
	C627.975525,502.732452 619.513550,517.766663 602.325378,526.567993 
	C596.483887,529.559082 590.230774,531.336304 583.882019,532.677063 
	C575.405457,534.467285 570.236145,539.146973 569.120667,547.937378 
	C568.932983,549.416870 568.421509,550.853027 568.189697,552.329590 
	C565.835815,567.320129 565.357910,582.478088 564.345459,597.581482 
	C564.012573,602.547607 562.255493,607.564697 563.973022,613.323120 
	C606.133850,573.363342 653.550293,545.757629 713.750305,544.137268 
	C666.602844,456.338470 619.417725,370.271851 570.651184,284.382477 
	C569.338379,286.014252 568.554138,286.847870 567.928467,287.787170 
	C544.933655,322.309204 521.986816,356.863312 498.910309,391.330597 
	C496.999756,394.184235 497.776337,396.101440 499.474731,398.448883 
	C507.580841,409.652710 515.624878,420.901794 523.628113,432.179352 
	C524.629028,433.589722 526.195496,434.869293 525.543945,437.943542 
	C519.475220,437.943542 513.218994,437.746033 506.982788,438.013855 
	C502.914490,438.188568 500.257477,436.854950 497.806122,433.481018 
	C478.219452,406.522705 458.441132,379.703613 438.724365,352.839813 
	C435.328400,348.212830 431.945984,343.575897 428.074341,338.283325 
	C390.595428,406.955902 352.906586,474.482208 316.434967,543.730103 
	C376.599609,545.272339 422.961517,574.436523 465.168732,613.240784 
	C466.453613,608.093506 464.950897,603.712891 464.643799,599.335938 
	C463.444336,582.240356 462.529510,565.121765 459.830750,548.147888 
	C458.498444,539.768127 454.708466,534.401550 446.093506,532.667969 
	C439.567719,531.354675 433.131409,529.565125 427.107391,526.608459 
	C409.366089,517.900879 401.436340,502.069153 395.362793,483.712189 
	C414.851166,483.212219 432.381927,486.591309 449.261810,496.118927 
M589.875671,822.322144 
	C620.619568,814.369446 649.429688,802.143799 675.496155,783.758301 
	C672.272705,783.964661 669.218750,784.625549 666.181946,785.357361 
	C632.306824,793.520569 598.369751,794.257080 564.298218,786.497131 
	C515.505188,775.384216 475.695068,749.386169 441.941803,713.178406 
	C427.387695,697.565918 414.699738,680.374390 400.405975,664.546387 
	C384.208069,646.609802 365.734802,631.816772 342.593475,623.883118 
	C313.906372,614.048096 285.156250,617.036499 256.475830,624.282227 
	C253.760025,624.968384 253.157837,626.699402 253.420929,629.132812 
	C254.584366,639.893250 255.869995,650.648560 258.723969,661.111572 
	C268.298889,696.214172 286.795166,726.220215 312.644501,751.429138 
	C366.042175,803.503967 431.083923,828.446594 504.949310,831.617065 
	C533.393066,832.837952 561.451172,829.390442 589.875671,822.322144 
M694.859924,249.522751 
	C692.811035,241.787766 692.059570,233.708633 689.175659,225.550293 
	C679.479492,234.553070 671.453003,243.873672 664.090027,253.766525 
	C646.210876,277.788818 631.586975,303.323669 626.793457,333.512726 
	C626.219238,337.129211 626.930176,339.984924 628.593506,342.984589 
	C643.134460,369.208374 657.625977,395.459534 672.157837,421.688385 
	C672.854248,422.945343 673.278137,424.508698 674.940125,425.007568 
	C676.620544,424.463226 676.911316,422.826996 677.624268,421.582520 
	C693.114136,394.545776 699.849121,365.034760 701.640503,334.282532 
	C703.285645,306.042236 700.397095,278.078979 694.859924,249.522751 
M340.571442,226.190674 
	C340.208527,226.728409 339.646210,227.220490 339.511139,227.810410 
	C330.228333,268.348999 323.991486,309.117981 329.121429,350.908722 
	C332.159363,375.656860 339.462433,398.943359 351.492950,420.753113 
	C352.390625,422.380493 352.881195,424.562500 355.317841,425.061768 
	C355.748138,424.498352 356.222229,424.018066 356.534180,423.448944 
	C371.730316,395.723267 386.896637,367.981171 402.128723,340.275299 
	C403.257080,338.222961 403.279175,336.357605 402.863892,334.102997 
	C398.359253,309.648468 388.546753,287.409454 374.758057,266.877106 
	C364.912048,252.215652 354.043152,238.351700 340.571442,226.190674 
M519.771606,214.663834 
	C518.060974,212.095078 517.260193,208.897186 514.766357,206.946823 
	C513.262573,207.456146 512.821167,208.619354 512.241028,209.587601 
	C490.250458,246.287704 468.300934,283.012421 446.268494,319.687347 
	C444.632812,322.410065 444.919525,324.488434 446.768646,326.915405 
	C451.511322,333.140045 456.074280,339.501617 460.712677,345.805817 
	C467.892242,355.563660 475.074799,365.319336 482.140015,374.918243 
	C483.922638,374.658997 484.377167,373.487610 485.006775,372.546570 
	C506.581512,340.301270 528.116272,308.029175 549.760559,275.830658 
	C551.782776,272.822327 552.028442,270.383881 550.148254,267.177338 
	C540.042786,249.942780 530.124695,232.598267 519.771606,214.663834 
z"/>
</svg>